<svg width="212" height="27" viewBox="0 0 212 27" fill="none" xmlns="http://www.w3.org/2000/svg">
<path d="M17.532 26.064L15.732 20.088H7.344L5.544 26.064H0L8.28 0.935999H15.048L23.22 26.064H17.532ZM11.592 5.904H11.412L8.64 15.444H14.4L11.592 5.904Z" fill="#F2C94C"/>
<path d="M26.6965 0.935999H38.9005C40.9885 0.935999 42.6085 1.524 43.7605 2.7C44.9365 3.876 45.5245 5.436 45.5245 7.38C45.5245 8.34 45.3925 9.156 45.1285 9.828C44.8885 10.5 44.5525 11.052 44.1205 11.484C43.7125 11.916 43.2205 12.24 42.6445 12.456C42.0925 12.648 41.4925 12.756 40.8445 12.78V12.996C41.4445 12.996 42.0685 13.104 42.7165 13.32C43.3885 13.536 44.0005 13.884 44.5525 14.364C45.1045 14.82 45.5605 15.42 45.9205 16.164C46.3045 16.908 46.4965 17.82 46.4965 18.9C46.4965 19.884 46.3285 20.82 45.9925 21.708C45.6805 22.572 45.2365 23.328 44.6605 23.976C44.0845 24.624 43.4005 25.14 42.6085 25.524C41.8165 25.884 40.9525 26.064 40.0165 26.064H26.6965V0.935999ZM32.1685 21.456H38.4685C39.1885 21.456 39.7525 21.264 40.1605 20.88C40.5925 20.472 40.8085 19.908 40.8085 19.188V17.964C40.8085 17.244 40.5925 16.692 40.1605 16.308C39.7525 15.9 39.1885 15.696 38.4685 15.696H32.1685V21.456ZM32.1685 11.232H37.6045C38.3245 11.232 38.8885 11.028 39.2965 10.62C39.7045 10.212 39.9085 9.648 39.9085 8.928V7.848C39.9085 7.128 39.7045 6.564 39.2965 6.156C38.8885 5.748 38.3245 5.544 37.6045 5.544H32.1685V11.232Z" fill="#F2C94C"/>
<path d="M58.8442 26.496C56.6362 26.496 54.7642 26.124 53.2282 25.38C51.6922 24.612 50.3843 23.628 49.3042 22.428L52.9043 18.792C54.6082 20.712 56.7083 21.672 59.2043 21.672C60.5482 21.672 61.5443 21.396 62.1922 20.844C62.8402 20.292 63.1642 19.56 63.1642 18.648C63.1642 17.952 62.9722 17.376 62.5882 16.92C62.2043 16.44 61.4242 16.116 60.2482 15.948L57.7643 15.624C55.1003 15.288 53.1443 14.484 51.8963 13.212C50.6723 11.94 50.0602 10.248 50.0602 8.136C50.0602 7.008 50.2763 5.976 50.7083 5.04C51.1403 4.104 51.7523 3.3 52.5443 2.628C53.3602 1.956 54.3442 1.44 55.4963 1.08C56.6722 0.695998 58.0042 0.503998 59.4922 0.503998C61.3882 0.503998 63.0563 0.803998 64.4963 1.404C65.9363 2.004 67.1723 2.88 68.2043 4.032L64.5683 7.704C63.9683 7.008 63.2362 6.444 62.3722 6.012C61.5322 5.556 60.4643 5.328 59.1683 5.328C57.9443 5.328 57.0322 5.544 56.4323 5.976C55.8323 6.408 55.5322 7.008 55.5322 7.776C55.5322 8.64 55.7603 9.264 56.2163 9.648C56.6963 10.032 57.4642 10.308 58.5202 10.476L61.0042 10.872C63.5962 11.28 65.5163 12.084 66.7643 13.284C68.0123 14.46 68.6363 16.14 68.6363 18.324C68.6363 19.524 68.4202 20.628 67.9883 21.636C67.5563 22.644 66.9203 23.508 66.0803 24.228C65.2643 24.948 64.2443 25.512 63.0203 25.92C61.7963 26.304 60.4043 26.496 58.8442 26.496Z" fill="#F2C94C"/>
<path d="M89.8169 26.496C87.6089 26.496 85.7369 26.124 84.2009 25.38C82.6649 24.612 81.3569 23.628 80.2769 22.428L83.8769 18.792C85.5809 20.712 87.6809 21.672 90.1769 21.672C91.5209 21.672 92.5169 21.396 93.1649 20.844C93.8129 20.292 94.1369 19.56 94.1369 18.648C94.1369 17.952 93.9449 17.376 93.5609 16.92C93.1769 16.44 92.3969 16.116 91.2209 15.948L88.7369 15.624C86.0729 15.288 84.1169 14.484 82.8689 13.212C81.6449 11.94 81.0329 10.248 81.0329 8.136C81.0329 7.008 81.2489 5.976 81.6809 5.04C82.1129 4.104 82.7249 3.3 83.5169 2.628C84.3329 1.956 85.3169 1.44 86.4689 1.08C87.6449 0.695998 88.9769 0.503998 90.4649 0.503998C92.3609 0.503998 94.0289 0.803998 95.4689 1.404C96.9089 2.004 98.1449 2.88 99.1769 4.032L95.5409 7.704C94.9409 7.008 94.2089 6.444 93.3449 6.012C92.5049 5.556 91.4369 5.328 90.1409 5.328C88.9169 5.328 88.0049 5.544 87.4049 5.976C86.8049 6.408 86.5049 7.008 86.5049 7.776C86.5049 8.64 86.7329 9.264 87.1889 9.648C87.6689 10.032 88.4369 10.308 89.4929 10.476L91.9769 10.872C94.5689 11.28 96.4889 12.084 97.7369 13.284C98.9849 14.46 99.6089 16.14 99.6089 18.324C99.6089 19.524 99.3929 20.628 98.9609 21.636C98.5289 22.644 97.8929 23.508 97.0529 24.228C96.2369 24.948 95.2169 25.512 93.9929 25.92C92.7689 26.304 91.3769 26.496 89.8169 26.496Z" fill="#F2C94C"/>
<path d="M113.778 5.796V26.064H108.306V5.796H101.502V0.935999H120.582V5.796H113.778Z" fill="#F2C94C"/>
<path d="M129.509 0.935999V16.344C129.509 18.12 129.857 19.452 130.553 20.34C131.249 21.204 132.413 21.636 134.045 21.636C135.677 21.636 136.841 21.204 137.537 20.34C138.233 19.452 138.581 18.12 138.581 16.344V0.935999H143.909V15.768C143.909 17.616 143.729 19.224 143.369 20.592C143.033 21.936 142.469 23.052 141.677 23.94C140.885 24.804 139.865 25.452 138.617 25.884C137.369 26.292 135.845 26.496 134.045 26.496C132.245 26.496 130.721 26.292 129.473 25.884C128.225 25.452 127.205 24.804 126.413 23.94C125.621 23.052 125.045 21.936 124.685 20.592C124.349 19.224 124.181 17.616 124.181 15.768V0.935999H129.509Z" fill="#F2C94C"/>
<path d="M149.322 0.935999H158.79C160.446 0.935999 161.958 1.2 163.326 1.728C164.694 2.256 165.858 3.048 166.818 4.104C167.778 5.136 168.522 6.444 169.05 8.028C169.578 9.588 169.842 11.412 169.842 13.5C169.842 15.588 169.578 17.424 169.05 19.008C168.522 20.568 167.778 21.876 166.818 22.932C165.858 23.964 164.694 24.744 163.326 25.272C161.958 25.8 160.446 26.064 158.79 26.064H149.322V0.935999ZM158.79 21.204C160.422 21.204 161.706 20.748 162.642 19.836C163.578 18.924 164.046 17.46 164.046 15.444V11.556C164.046 9.54 163.578 8.076 162.642 7.164C161.706 6.252 160.422 5.796 158.79 5.796H154.794V21.204H158.79Z" fill="#F2C94C"/>
<path d="M173.451 26.064V21.708H176.691V5.292H173.451V0.935999H185.403V5.292H182.163V21.708H185.403V26.064H173.451Z" fill="#F2C94C"/>
<path d="M200.042 26.496C198.386 26.496 196.874 26.22 195.506 25.668C194.138 25.116 192.974 24.3 192.014 23.22C191.054 22.116 190.31 20.76 189.782 19.152C189.254 17.52 188.99 15.636 188.99 13.5C188.99 11.364 189.254 9.492 189.782 7.884C190.31 6.252 191.054 4.896 192.014 3.816C192.974 2.712 194.138 1.884 195.506 1.332C196.874 0.779998 198.386 0.503998 200.042 0.503998C201.698 0.503998 203.21 0.779998 204.578 1.332C205.946 1.884 207.11 2.712 208.07 3.816C209.03 4.896 209.774 6.252 210.302 7.884C210.83 9.492 211.094 11.364 211.094 13.5C211.094 15.636 210.83 17.52 210.302 19.152C209.774 20.76 209.03 22.116 208.07 23.22C207.11 24.3 205.946 25.116 204.578 25.668C203.21 26.22 201.698 26.496 200.042 26.496ZM200.042 21.636C201.698 21.636 202.982 21.096 203.894 20.016C204.83 18.936 205.298 17.388 205.298 15.372V11.628C205.298 9.612 204.83 8.064 203.894 6.984C202.982 5.904 201.698 5.364 200.042 5.364C198.386 5.364 197.09 5.904 196.154 6.984C195.242 8.064 194.786 9.612 194.786 11.628V15.372C194.786 17.388 195.242 18.936 196.154 20.016C197.09 21.096 198.386 21.636 200.042 21.636Z" fill="#F2C94C"/>
</svg>
